# xmcd
#
# Track frame offsets:
# 150
# 14173
# 27383
# 45818
# 60576
# 78365
# 93045
# 109568
# 126794
# 146346
# 166171
# 184677
# 201572
# 217241
# 234283
#
# Disc length: 3340 seconds
#
#
# Revision: 2
# Processed by: cddbd v1.5.2PL0 Copyright (c) Steve Scherf et al.
# Submitted via: FreeRIP 2.951 
#
DISCID=c30d0a0f
DTITLE=Garotos de Ouro - O sucesso continua
DYEAR=2006
DGENRE=Other
TTITLE0=Vuko Vuko
TTITLE1=Baile da Gabriela
TTITLE2=Viver sem ela
TTITLE3=Dá última marca
TTITLE4=No clarão da lua
TTITLE5=O beijo
TTITLE6=Da-da-da
TTITLE7=Do Brasil à Argentina
TTITLE8=Do sul do Brasil
TTITLE9=Palavras de amor
TTITLE10=Coração de pedra
TTITLE11=O barco vai
TTITLE12=Segura peão
TTITLE13=Ritual crioulo
TTITLE14=Volante de Ouro
EXTD=Por Fernando Molinari
EXTT0=
EXTT1=
EXTT2=
EXTT3=
EXTT4=
EXTT5=
EXTT6=
EXTT7=
EXTT8=
EXTT9=
EXTT10=
EXTT11=
EXTT12=
EXTT13=
EXTT14=
PLAYORDER=
